Coordinates
version=1
nRows=29
nColumns=24
inDegrees=yes

Units are S.I. units (second, meters, Newtons, ...)
Angles are in degrees.

endheader
time	pelvis_tilt	pelvis_list	pelvis_rotation	pelvis_tx	pelvis_ty	pelvis_tz	hip_flexion_r	hip_adduction_r	hip_rotation_r	knee_angle_r	ankle_angle_r	subtalar_angle_r	mtp_angle_r	hip_flexion_l	hip_adduction_l	hip_rotation_l	knee_angle_l	ankle_angle_l	subtalar_angle_l	mtp_angle_l	lumbar_extension	lumbar_bending	lumbar_rotation
      0.84583333	     -0.39732478	     -6.63516796	     -5.16853935	     -0.50480560	      1.01273989	      0.32420678	     11.43149562	     11.05440101	      1.42221571	    -13.62173514	     -4.46979638	    -18.34598549	     -8.09664911	     19.20173707	    -14.97035237	     -9.77505031	    -73.31077891	      2.10056293	    -12.61507559	     -3.32571395	    -10.83934289	      7.85041137	      9.96155905
      0.85000000	     -0.31365085	     -6.56724763	     -5.48691609	     -0.49971871	      1.01376720	      0.32508407	     10.85484675	     11.05151749	      1.84372425	    -13.35877130	     -4.43400514	    -18.42340101	     -8.08665776	     19.58008072	    -15.01635614	    -10.02684331	    -72.92967649	      2.33577309	    -12.47236332	     -3.54076298	    -11.00024249	      7.67760003	     10.48840549
      0.85416667	     -0.32158644	     -6.51720966	     -5.60137401	     -0.49455256	      1.01459725	      0.32538522	     10.38506162	     10.99801086	      1.96218031	    -13.07901864	     -4.34274469	    -18.37817836	     -8.08399010	     20.14214680	    -14.97357389	    -10.03724819	    -72.52349257	      2.49518601	    -12.44824731	     -3.55750435	    -11.00296601	      7.61085215	     10.53581181
      0.85833333	     -0.15998961	     -6.43495547	     -5.82309105	     -0.48942278	      1.01574263	      0.32595319	      9.72116111	     10.92295532	      2.23663707	    -12.79124027	     -4.25414489	    -18.33165198	     -8.07016240	     20.41904549	    -14.94268870	    -10.22279800	    -71.98507152	      2.70181678	    -12.27371761	     -3.69264346	    -11.23445746	      7.44656583	     10.90453704
      0.86250000	     -0.04065577	     -6.33600158	     -6.04301225	     -0.48425652	      1.01680321	      0.32651101	      9.10380671	     10.82690846	      2.49583190	    -12.49943980	     -4.21243131	    -18.31759788	     -8.05402134	     20.72259781	    -14.89359983	    -10.42326196	    -71.37723228	      2.84601608	    -12.24008866	     -3.82779250	    -11.39945114	      7.25582523	     11.12554021
      0.86666667	      0.08582628	     -6.26416410	     -6.23951507	     -0.47907611	      1.01782996	      0.32697362	      8.47775149	     10.74317191	      2.71141187	    -12.20735399	     -4.12916066	    -18.25083886	     -8.03340901	     21.00867587	    -14.86180214	    -10.60455200	    -70.72017767	      3.00886755	    -12.17753474	     -3.94897091	    -11.56880654	      7.12827667	     11.36152060
      0.87083333	      0.05409275	     -6.25056888	     -6.34321988	     -0.47391241	      1.01847153	      0.32722636	      8.03224465	     10.71619596	      2.81805739	    -11.92385353	     -4.03814847	    -18.20126363	     -8.02978654	     21.52728946	    -14.86161174	    -10.63940513	    -70.08399044	      3.14673815	    -12.19342070	     -3.95800768	    -11.55042071	      7.10953040	     11.39430536
      0.87500000	      0.37534755	     -6.08174674	     -6.65389212	     -0.46868879	      1.01989060	      0.32796272	      7.19036463	     10.52146416	      3.16128341	    -11.62659141	     -3.95046947	    -18.12059337	     -8.00125977	     21.44886563	    -14.76733407	    -11.05741870	    -69.18232256	      3.26902522	    -12.09212870	     -4.07048424	    -11.94400881	      6.77903076	     11.78686908
      0.87916667	      0.57405194	     -6.00544968	     -6.87345248	     -0.46348642	      1.02097487	      0.32849180	      6.47671686	     10.41695921	      3.41637931	    -11.31065730	     -3.92219136	    -18.10521248	     -7.97183186	     21.56119886	    -14.74226929	    -11.32925106	    -68.30869251	      3.38641723	    -12.06541969	     -4.17849725	    -12.18984641	      6.61559054	     12.04201305
      0.88333333	      0.74597262	     -5.91642465	     -7.09263456	     -0.45825841	      1.02196991	      0.32899664	      5.80880861	     10.29125727	      3.62739464	    -11.03108560	     -3.82072666	    -18.02042626	     -7.94262014	     21.67975875	    -14.70467540	    -11.61730847	    -67.37764954	      3.49836254	    -12.02653017	     -4.26932833	    -12.39297305	      6.43517032	     12.24709969
      0.88750000	      0.94228438	     -5.83364474	     -7.31753041	     -0.45302975	      1.02298428	      0.32952077	      5.10529332	     10.16731073	      3.87539784	    -10.72992263	     -3.75873007	    -17.97517845	     -7.91161312	     21.74122878	    -14.67441873	    -11.92939855	    -66.38020466	      3.58800685	    -12.01789790	     -4.36188671	    -12.63224739	      6.25184069	     12.49459784
      0.89166667	      1.14309521	     -5.74978664	     -7.55163904	     -0.44782523	      1.02396201	      0.33006113	      4.40434483	     10.03668933	      4.14050623	    -10.44245771	     -3.66633174	    -17.90060466	     -7.87797965	     21.77231909	    -14.64636801	    -12.26433993	    -65.32590232	      3.67206085	    -12.00748277	     -4.45479337	    -12.88482332	      6.06212309	     12.72329768
      0.89583333	      1.36847720	     -5.66835655	     -7.78331758	     -0.44259249	      1.02494835	      0.33059813	      3.67671927	      9.89865679	      4.39305146	    -10.15342762	     -3.58770946	    -17.84713193	     -7.84629059	     21.74523401	    -14.61841550	    -12.62257894	    -64.20509467	      3.74268648	    -11.99871588	     -4.54541784	    -13.15122358	      5.87058392	     12.96403362
      0.90000000	      1.55387648	     -5.59059242	     -8.02252721	     -0.43734929	      1.02582568	      0.33114745	      2.99965748	      9.76517363	      4.65130011	     -9.88139487	     -3.49772261	    -17.78368201	     -7.81587675	     21.73905510	    -14.60182205	    -12.99725096	    -63.03774429	      3.79752529	    -12.00565209	     -4.63627665	    -13.37165228	      5.68649406	     13.19433977
      0.90416667	      1.79112888	     -5.52112047	     -8.26875572	     -0.43211652	      1.02674332	      0.33171775	      2.26505443	      9.62831342	      4.92620545	     -9.60530891	     -3.40920615	    -17.73731928	     -7.78700250	     21.64162046	    -14.59269404	    -13.40631664	    -61.80546010	      3.84683542	    -12.00547687	     -4.72972940	    -13.65082023	      5.49392169	     13.44330884
      0.90833333	      2.00037388	     -5.48028972	     -8.51827450	     -0.42688661	      1.02756463	      0.33230160	      1.55953161	      9.52124822	      5.20804135	     -9.33062316	     -3.34008487	    -17.68028973	     -7.75782475	     21.55623271	    -14.62290881	    -13.82768390	    -60.53836807	      3.87502261	    -12.02179809	     -4.84078172	    -13.90223846	      5.33869888	     13.71111546
      0.91250000	      2.18051083	     -5.40949710	     -8.75778750	     -0.42163959	      1.02829162	      0.33285966	      0.90388044	      9.38054783	      5.46761423	     -9.08863558	     -3.20793977	    -17.65349931	     -7.73797304	     21.48126303	    -14.61185358	    -14.25552355	    -59.21078767	      3.89283062	    -12.06448338	     -4.93530255	    -14.10437585	      5.14674060	     13.90151216
      0.91666667	      2.37497989	     -5.34988173	     -9.00261668	     -0.41639383	      1.02901127	      0.33340761	      0.22928362	      9.24153805	      5.75017171	     -8.83715253	     -3.11222156	    -17.60778278	     -7.72210563	     21.36024645	    -14.60818564	    -14.70344764	    -57.82644537	      3.89911642	    -12.09510606	     -5.03367412	    -14.33254526	      4.96859051	     14.15227243
      0.92083333	      2.55517212	     -5.32256300	     -9.24404265	     -0.41116021	      1.02964113	      0.33395680	     -0.42970149	      9.13486154	      6.03405759	     -8.59199177	     -3.01555567	    -17.56561577	     -7.71029316	     21.23885618	    -14.64258817	    -15.15751661	    -56.41212408	      3.89481417	    -12.12657094	     -5.13719427	    -14.54870846	      4.82925209	     14.38097518
      0.92500000	      2.69748042	     -5.29318826	     -9.47960015	     -0.40591234	      1.03016182	      0.33448322	     -1.03818186	      9.02629834	      6.29860308	     -8.36674430	     -2.89299626	    -17.52178839	     -7.70430246	     21.13979324	    -14.67258501	    -15.62020662	    -54.95356156	      3.87178693	    -12.18848693	     -5.23872241	    -14.71548584	      4.69254677	     14.59063294
      0.92916667	      2.89234627	     -5.30697086	     -9.72020038	     -0.40068411	      1.03071501	      0.33503513	     -1.71541576	      8.94894171	      6.58020821	     -8.12384945	     -2.80332052	    -17.46410119	     -7.70399710	     20.95325123	    -14.75092684	    -16.11924727	    -53.45414763	      3.83113358	    -12.19462913	     -5.37436016	    -14.95860235	      4.58950957	     14.87025764
      0.93333333	      2.97518497	     -5.28772573	     -9.93474081	     -0.39543165	      1.03102717	      0.33549173	     -2.24661729	      8.85013287	      6.82171194	     -7.92586921	     -2.63912895	    -17.42116421	     -7.70792638	     20.88895921	    -14.77882956	    -16.57817074	    -51.91920320	      3.79353963	    -12.29794138	     -5.47896761	    -15.06178833	      4.47946062	     15.00576536
      0.93750000	      3.15569761	     -5.32020543	    -10.15949279	     -0.39021143	      1.03145929	      0.33598865	     -2.89905940	      8.78300539	      7.07928329	     -7.70210842	     -2.53794635	    -17.35287131	     -7.72212922	     20.67748965	    -14.86070739	    -17.09321954	    -50.32972203	      3.72005446	    -12.30046666	     -5.61944564	    -15.28191814	      4.40166330	     15.27168799
      0.94166667	      3.24563751	     -5.34907607	    -10.36395247	     -0.38496115	      1.03168368	      0.33641039	     -3.44220242	      8.72256001	      7.30404105	     -7.50578455	     -2.39004080	    -17.27886236	     -7.74194419	     20.56233002	    -14.93270080	    -17.58367785	    -48.71919359	      3.64549945	    -12.35319518	     -5.75441894	    -15.40154177	      4.34556690	     15.45469963
      0.94583333	      3.30694196	     -5.38751523	    -10.55520225	     -0.37971135	      1.03181034	      0.33678649	     -3.95053992	      8.67328945	      7.51088285	     -7.31881073	     -2.23489605	    -17.20332549	     -7.76722870	     20.46532504	    -15.00597735	    -18.06842101	    -47.07491648	      3.56100257	    -12.40035744	     -5.88524471	    -15.48843393	      4.30956776	     15.61765711
      0.95000000	      3.35920496	     -5.43685525	    -10.73508877	     -0.37445507	      1.03187381	      0.33711900	     -4.44793448	      8.63172695	      7.70074349	     -7.13688125	     -2.07159772	    -17.11226007	     -7.79743072	     20.36047437	    -15.08042945	    -18.55796384	    -45.39266025	      3.46510747	    -12.43644731	     -6.01036130	    -15.56649669	      4.29193333	     15.77061662
      0.95416667	      3.36096004	     -5.49935788	    -10.89802109	     -0.36918774	      1.03180227	      0.33739010	     -4.88684904	      8.61016304	      7.86205486	     -6.96801525	     -1.89858657	    -17.00713650	     -7.83245651	     20.30331219	    -15.16233393	    -19.03259394	    -43.68801893	      3.36147197	    -12.45908606	     -6.12771259	    -15.59034183	      4.30778616	     15.90977609
      0.95833333	      3.31548798	     -5.56143123	    -11.02612509	     -0.36388649	      1.03159379	      0.33756404	     -5.27355724	      8.59414088	      7.98347797	     -6.80222812	     -1.71837611	    -16.90244506	     -7.86027586	     20.29603333	    -15.22414893	    -19.46784149	    -41.95918291	      3.28733391	    -12.47857363	     -6.20928955	    -15.55218246	      4.34299300	     15.97283425
      0.96250000	      3.28641339	     -5.64507975	    -11.15133094	     -0.35859936	      1.03137022	      0.33770279	     -5.67704364	      8.59175225	      8.08061651	     -6.64310706	     -1.53283725	    -16.74802792	     -7.89032382	     20.25010570	    -15.30009066	    -19.92629003	    -40.19503376	      3.16661218	    -12.44267909	     -6.28508360	    -15.54606315	      4.40114529	     16.06904695
